<svg viewBox="0 0 769.95 380.14" xmlns="http://www.w3.org/2000/svg">
    <g fill="none" stroke="#2a3ad1" stroke-linejoin="round">
        <path d="m516.52 157.02 4.62-73.79 221.38 32.87-5.5 87.8"/>
        <path d="m768.96 210.4-273.68-57.77"/>
        <path d="m535.29 161.2 6.84-109.12 179.01 21.56-7.82 124.77"/>
        <path d="m756.55 176.99-250.04-47.41"/>
        <path d="m569.91 168.38 9.14-145.84 100.61 9.41-9.88 157.72"/>
        <path d="m627.7 13.69-10.32 164.68"/>
        <path d="m495.28 152.63c5.57-88.86 62.4-157.07 133.72-151.85 80 5.86 146.87 100 140 209.62l-12.45-33.4c-2.88-38-15.31-74.05-35.63-103.46-24.89-36-58.09-56.91-92.77-59.79-32.93-2.74-63.44 11.12-86.53 38.2-17.66 20.7-29.69 47.58-35.18 77.63z"/>
        <path d="m544.82 33.21 5 9.96"/>
        <path d="m527.57 53.73 6.11 8.45"/>
        <path d="m514.47 76.33 6.9 6.82"/>
        <path d="m504.7 101.12 7.51 5.13"/>
        <path d="m498.54 126.02 2.78 14.14"/>
        <path d="m506.44 129.57-7.9-3.55"/>
        <path d="m587.62 6.2 2.12 12.11"/>
        <path d="m564.73 17.32 3.68 11.16"/>
        <path d="m614.5.73.24 12.81"/>
        <path d="m628.52.72-.82 12.97"/>
        <path d="m600.76 2.59 1.21 12.51"/>
        <path d="m614.74 13.54-13.98-10.95"/>
        <path d="m628.96.78-14.22 12.76"/>
        <path d="m576.1 10.97 2.91 11.68"/>
        <path d="m589.74 18.31-13.64-7.34"/>
        <path d="m600.76 2.59-11.02 15.72"/>
        <path d="m554.52 24.62 4.36 10.59"/>
        <path d="m568.41 28.48-13.89-3.86"/>
        <path d="m576.1 10.97-7.69 17.51"/>
        <path d="m536.04 42.67 5.58 9.27"/>
        <path d="m549.82 43.17-13.78-.5"/>
        <path d="m554.52 24.62-4.7 18.55"/>
        <path d="m520.6 64.72 6.54 7.65"/>
        <path d="m533.68 62.18-13.08 2.54"/>
        <path d="m536.04 42.67-2.36 19.51"/>
        <path d="m509.29 88.17 7.22 6.01"/>
        <path d="m521.37 83.15-12.08 5.02"/>
        <path d="m520.6 64.72.77 18.43"/>
        <path d="m501.19 113.65 7.73 4.3"/>
        <path d="m512.21 106.25-11.02 7.4"/>
        <path d="m509.29 88.17 2.92 18.08"/>
        <path d="m501.19 113.65 5.25 15.92"/>
        <path d="m719.64 51.53-7.9 9.85"/>
        <path d="m739.31 79.85-9.56 7.76"/>
        <path d="m753.88 110.72-10.77 5.36"/>
        <path d="m763.81 144.08-11.64 2.74"/>
        <path d="m768.67 176.76-6.47 15.42"/>
        <path d="m756.55 176.98 12.12-.22"/>
        <path d="m671.93 12.93-4.04 12.37"/>
        <path d="m697.1 29.28-6.02 11.34"/>
        <path d="m643.62 2.88-1.9 12.92"/>
        <path d="m657.92 6.94-2.97 12.71"/>
        <path d="m641.72 15.8 16.2-8.86"/>
        <path d="m628.96.78 12.76 15.02"/>
        <path d="m684.49 20.12-5.02 11.93"/>
        <path d="m667.89 25.3 16.6-5.18"/>
        <path d="m657.92 6.94 9.97 18.36"/>
        <path d="m708.6 39.56-6.97 10.67"/>
        <path d="m691.08 40.62 17.52-1.06"/>
        <path d="m684.49 20.12 6.59 20.5"/>
        <path d="m729.67 64.62-8.75 8.91"/>
        <path d="m711.74 61.38 17.93 3.24"/>
        <path d="m708.6 39.56 3.14 21.82"/>
        <path d="m747.15 94.89-10.21 6.6"/>
        <path d="m729.75 87.61 17.4 7.28"/>
        <path d="m729.67 64.62.08 22.99"/>
        <path d="m759.32 126.74-11.24 4.11"/>
        <path d="m743.11 116.08 16.21 10.66"/>
        <path d="m747.15 94.89-4.04 21.19"/>
        <path d="m766.84 160.65-11.92 1.43"/>
        <path d="m752.17 146.82 14.67 13.83"/>
        <path d="m759.32 126.74-7.15 20.08"/>
        <path d="m766.84 160.65-10.29 16.33"/>
        <path d="m425.52 167c5.84-93.1 63.75-165.2 137.15-160.6 83.87 5.16 155.33 106.43 147.85 225.54l-13.35-36.5c-3.08-41.2-16.37-80.31-38-112-26.35-38.58-61.17-60.6-97.36-63.28-34-2.53-65.41 12.43-89 41.12-18 21.84-30.27 50.07-35.9 81.58z"/>
        <path d="m476.06 41.55 5.09 10.45"/>
        <path d="m458.46 63.24 6.2 8.85"/>
        <path d="m445.11 87.01 6.99 7.15"/>
        <path d="m435.17 113.02 7.58 5.39"/>
        <path d="m428.87 139.11 2.78 14.83"/>
        <path d="m436.86 142.86-7.99-3.75"/>
        <path d="m519.94 12.64 2.17 12.79"/>
        <path d="m496.44 24.64 3.74 11.73"/>
        <path d="m547.68 6.52.23 13.58"/>
        <path d="m563.02 6.63-.88 13.98"/>
        <path d="m533.49 8.66 1.23 13.24"/>
        <path d="m547.91 20.1-14.42-11.44"/>
        <path d="m562.67 6.39-14.76 13.71"/>
        <path d="m508.1 17.82 2.96 12.3"/>
        <path d="m522.11 25.43-14.01-7.61"/>
        <path d="m533.49 8.66-11.38 16.77"/>
        <path d="m485.98 32.42 4.44 11.13"/>
        <path d="m500.18 36.37-14.2-3.95"/>
        <path d="m508.1 17.82-7.92 18.55"/>
        <path d="m467.1 51.57 5.66 9.71"/>
        <path d="m481.15 52-14.05-.43"/>
        <path d="m485.98 32.42-4.83 19.58"/>
        <path d="m451.36 74.81 6.62 8.01"/>
        <path d="m464.66 72.09-13.3 2.72"/>
        <path d="m467.1 51.57-2.44 20.52"/>
        <path d="m439.84 99.45 7.3 6.3"/>
        <path d="m452.1 94.16-12.26 5.29"/>
        <path d="m451.36 74.81.74 19.35"/>
        <path d="m431.58 126.16 7.82 4.52"/>
        <path d="m442.75 118.41-11.17 7.75"/>
        <path d="m439.84 99.45 2.91 18.96"/>
        <path d="m431.58 126.16 5.28 16.7"/>
        <path d="m657.81 59.73-8.39 10.65"/>
        <path d="m678.76 90.17-10.21 8.4"/>
        <path d="m694.34 123.56-11.55 5.78"/>
        <path d="m704.99 159.79-12.51 2.89"/>
        <path d="m710.22 195.36-6.99 16.65"/>
        <path d="m697.17 195.43 13.05-.07"/>
        <path d="m607.5 18.79-4.25 13.26"/>
        <path d="m633.97 36.01-6.38 12.22"/>
        <path d="m577.91 8.43-1.99 13.77"/>
        <path d="m592.83 12.57-3.12 13.59"/>
        <path d="m575.92 22.2 16.91-9.63"/>
        <path d="m562.67 6.39 13.25 15.81"/>
        <path d="m620.68 26.33-5.29 12.82"/>
        <path d="m603.25 32.05 17.43-5.72"/>
        <path d="m592.83 12.57 10.42 19.48"/>
        <path d="m646.11 46.94-7.39 11.52"/>
        <path d="m627.59 48.23 18.52-1.29"/>
        <path d="m620.68 26.33 6.91 21.9"/>
        <path d="m668.48 73.77-9.33 9.64"/>
        <path d="m649.42 70.38 19.06 3.39"/>
        <path d="m646.11 46.94 3.31 23.44"/>
        <path d="m687.13 106.43-10.93 7.13"/>
        <path d="m668.55 98.57 18.58 7.86"/>
        <path d="m668.48 73.77.07 24.8"/>
        <path d="m700.17 140.95-12.06 4.4"/>
        <path d="m682.79 129.34 17.38 11.61"/>
        <path d="m687.13 106.43-4.34 22.91"/>
        <path d="m708.26 177.83-12.84 1.42"/>
        <path d="m692.48 162.68 15.78 15.15"/>
        <path d="m700.17 140.95-7.69 21.73"/>
        <path d="m708.26 177.83-11.09 17.6"/>
        <path d="m355.76 181.34c6.1-97.34 65.1-173.34 140.62-169.34 87.73 4.5 163.76 112.87 155.69 241.5l-14.28-39.6c-3.27-44.43-17.43-86.58-40.4-120.59-27.77-41.1-64.31-64.25-101.92-66.71-35.17-2.32-67.38 13.73-91.57 44-18.36 23-30.85 52.56-36.63 85.53z"/>
        <path d="m407.3 49.89 5.17 10.94"/>
        <path d="m389.35 72.75 6.28 9.25"/>
        <path d="m375.76 97.7 7.07 7.47"/>
        <path d="m365.63 124.92 7.67 5.65"/>
        <path d="m359.2 152.21 2.78 15.52"/>
        <path d="m367.27 156.15-8.07-3.94"/>
        <path d="m452.27 19.09 2.2 13.46"/>
        <path d="m428.14 31.96 3.81 12.31"/>
        <path d="m480.87 12.31.21 14.36"/>
        <path d="m496.52 12.49-.87 13.97"/>
        <path d="m466.21 14.74 1.25 13.97"/>
        <path d="m481.08 26.67-14.87-11.93"/>
        <path d="m496.38 11.99-15.3 14.68"/>
        <path d="m440.1 24.67 3.02 12.93"/>
        <path d="m454.47 32.55-14.37-7.88"/>
        <path d="m466.21 14.74-11.74 17.81"/>
        <path d="m417.44 40.23 4.51 11.66"/>
        <path d="m431.95 44.27-14.51-4.04"/>
        <path d="m440.1 24.67-8.15 19.6"/>
        <path d="m398.15 60.46 5.75 10.16"/>
        <path d="m412.47 60.83-14.32-.37"/>
        <path d="m417.44 40.23-4.97 20.6"/>
        <path d="m382.12 84.9 6.7 8.37"/>
        <path d="m395.63 82-13.51 2.9"/>
        <path d="m398.15 60.46-2.52 21.54"/>
        <path d="m370.39 110.72 7.39 6.59"/>
        <path d="m382.83 105.17-12.44 5.55"/>
        <path d="m382.12 84.9.71 20.27"/>
        <path d="m361.98 138.66 7.9 4.75"/>
        <path d="m373.3 130.57-11.32 8.09"/>
        <path d="m370.39 110.72 2.91 19.85"/>
        <path d="m361.98 138.66 5.29 17.49"/>
        <path d="m595.99 67.92-8.89 11.46"/>
        <path d="m618.2 100.49-10.86 9.04"/>
        <path d="m634.79 136.41-12.32 6.19"/>
        <path d="m646.18 175.51-13.39 3.02"/>
        <path d="m651.76 213.95-7.49 17.9"/>
        <path d="m637.79 213.88 13.97.07"/>
        <path d="m543.06 24.65-4.46 14.15"/>
        <path d="m570.83 42.74-6.72 13.1"/>
        <path d="m512.21 13.98-2.1 14.63"/>
        <path d="m527.74 18.2-3.27 14.47"/>
        <path d="m510.11 28.61 17.63-10.41"/>
        <path d="m496.38 11.99 13.73 16.62"/>
        <path d="m556.87 32.54-5.56 13.71"/>
        <path d="m538.6 38.8 18.27-6.26"/>
        <path d="m527.74 18.2 10.86 20.6"/>
        <path d="m583.63 54.32-7.81 12.37"/>
        <path d="m564.11 55.84 19.52-1.52"/>
        <path d="m556.87 32.54 7.24 23.3"/>
        <path d="m607.28 82.92-9.89 10.38"/>
        <path d="m587.1 79.38 20.18 3.54"/>
        <path d="m583.63 54.32 3.47 25.06"/>
        <path d="m627.11 117.96-11.64 7.67"/>
        <path d="m607.34 109.53 19.77 8.43"/>
        <path d="m607.28 82.92.06 26.61"/>
        <path d="m641.02 155.16-12.89 4.68"/>
        <path d="m622.47 142.6 18.55 12.56"/>
        <path d="m627.11 117.96-4.64 24.64"/>
        <path d="m649.67 195-13.75 1.41"/>
        <path d="m632.79 178.53 16.88 16.47"/>
        <path d="m641.02 155.16-8.23 23.37"/>
        <path d="m649.67 195-11.88 18.88"/>
        <path d="m286 195.7c6.36-101.57 66.44-181.46 144.09-178.1 91.59 3.81 172.2 119.3 163.54 257.4l-15.23-42.66c-3.46-47.67-18.48-92.84-42.78-129.16-29.21-43.63-67.42-67.91-106.49-70.18-36.29-2.09-69.35 15.05-94.13 47-18.71 24.11-31.43 55-37.35 89.48z"/>
        <path d="m338.54 58.24 5.25 11.42"/>
        <path d="m320.24 82.26 6.37 9.65"/>
        <path d="m306.4 108.38 7.16 7.8"/>
        <path d="m296.09 136.83 7.76 5.9"/>
        <path d="m289.54 165.3 2.77 16.22"/>
        <path d="m297.69 169.44-8.15-4.14"/>
        <path d="m384.59 25.54 2.24 14.13"/>
        <path d="m359.85 39.27 3.87 12.89"/>
        <path d="m414.05 18.11.2 15.13"/>
        <path d="m430.09 17.34-1 15.97"/>
        <path d="m398.94 20.82 1.26 14.69"/>
        <path d="m414.25 33.24-15.31-12.42"/>
        <path d="m430.09 17.6-15.84 15.64"/>
        <path d="m372.1 31.52 3.07 13.55"/>
        <path d="m386.83 39.67-14.73-8.15"/>
        <path d="m398.94 20.82-12.11 18.85"/>
        <path d="m348.9 48.04 4.59 12.19"/>
        <path d="m363.72 52.16-14.82-4.12"/>
        <path d="m372.1 31.52-8.38 20.64"/>
        <path d="m329.21 69.36 5.83 10.6"/>
        <path d="m343.79 69.66-14.58-.3"/>
        <path d="m348.9 48.04-5.11 21.62"/>
        <path d="m312.87 94.99 6.8 8.73"/>
        <path d="m326.61 91.91-13.74 3.08"/>
        <path d="m329.21 69.36-2.6 22.55"/>
        <path d="m300.94 122 7.47 6.88"/>
        <path d="m313.56 116.18-12.62 5.82"/>
        <path d="m312.87 94.99.69 21.19"/>
        <path d="m292.37 151.17 7.98 4.97"/>
        <path d="m303.85 142.73-11.48 8.44"/>
        <path d="m300.94 122 2.91 20.73"/>
        <path d="m292.37 151.17 5.32 18.27"/>
        <path d="m534.17 76.12-9.39 12.26"/>
        <path d="m557.64 110.82-11.5 9.68"/>
        <path d="m575.25 149.25-13.1 6.61"/>
        <path d="m587.37 191.22-14.27 3.16"/>
        <path d="m593.31 232.55-8 19.13"/>
        <path d="m578.4 232.33 14.91.22"/>
        <path d="m478.62 30.51-4.67 15.04"/>
        <path d="m507.7 49.47-7.07 13.98"/>
        <path d="m446.5 19.53-2.19 15.48"/>
        <path d="m462.65 23.83-3.43 15.35"/>
        <path d="m444.31 35.01 18.34-11.18"/>
        <path d="m430.09 17.6 14.22 17.41"/>
        <path d="m493.07 38.76-5.85 14.6"/>
        <path d="m473.95 45.55 19.12-6.79"/>
        <path d="m462.65 23.83 11.3 21.72"/>
        <path d="m521.14 61.7-8.22 13.22"/>
        <path d="m500.63 63.45 20.51-1.75"/>
        <path d="m493.07 38.76 7.56 24.69"/>
        <path d="m546.09 92.07-10.47 11.11"/>
        <path d="m524.78 88.38 21.31 3.69"/>
        <path d="m521.14 61.7 3.64 26.68"/>
        <path d="m567.09 129.49-12.36 8.2"/>
        <path d="m546.14 120.5 20.95 8.99"/>
        <path d="m546.09 92.07.05 28.43"/>
        <path d="m581.88 169.37-13.73 4.97"/>
        <path d="m562.15 155.86 19.73 13.51"/>
        <path d="m567.09 129.49-4.94 26.37"/>
        <path d="m591.08 212.17-14.65 1.41"/>
        <path d="m573.1 194.38 17.98 17.79"/>
        <path d="m581.88 169.37-8.78 25.01"/>
        <path d="m591.08 212.17-12.68 20.16"/>
        <path d="m216.23 210.05c6.63-105.79 67.77-189.58 147.57-186.84 95.45 3.13 180.64 125.72 171.39 273.37l-16.19-45.79c-3.65-50.91-19.54-99.11-45.16-137.72-30.65-46.18-70.54-71.58-111.07-73.62-37.41-1.91-71.32 16.33-96.61 49.85-19.06 25.24-32 57.53-38.07 93.44z"/>
        <path d="m269.79 66.58 5.32 11.91"/>
        <path d="m251.13 91.77 6.45 10.05"/>
        <path d="m237.04 119.07 7.25 8.12"/>
        <path d="m226.55 148.73 7.84 6.16"/>
        <path d="m219.87 178.39 2.78 16.91"/>
        <path d="m228.11 182.74-8.24-4.35"/>
        <path d="m316.92 31.99 2.28 14.8"/>
        <path d="m291.55 46.59 3.94 13.46"/>
        <path d="m347.24 23.9.18 15.91"/>
        <path d="m363.59 23.19-1 15.97"/>
        <path d="m331.66 26.9 1.28 15.41"/>
        <path d="m347.42 39.81-15.76-12.91"/>
        <path d="m363.8 23.21-16.38 16.6"/>
        <path d="m304.1 38.36 3.13 14.18"/>
        <path d="m319.2 46.79-15.1-8.43"/>
        <path d="m331.66 26.9-12.46 19.89"/>
        <path d="m280.36 55.85 4.66 12.72"/>
        <path d="m295.49 60.05-15.13-4.2"/>
        <path d="m304.1 38.36-8.61 21.69"/>
        <path d="m260.27 78.26 5.91 11.04"/>
        <path d="m275.11 78.49-14.84-.23"/>
        <path d="m280.36 55.85-5.25 22.64"/>
        <path d="m243.63 105.08 6.88 9.1"/>
        <path d="m257.58 101.82-13.95 3.26"/>
        <path d="m260.27 78.26-2.69 23.56"/>
        <path d="m231.49 133.27 7.55 7.17"/>
        <path d="m244.29 127.19-12.8 6.08"/>
        <path d="m243.63 105.08.66 22.11"/>
        <path d="m222.76 163.67 8.07 5.2"/>
        <path d="m234.39 154.89-11.63 8.78"/>
        <path d="m231.49 133.27 2.9 21.62"/>
        <path d="m222.76 163.67 5.35 19.07"/>
        <path d="m472.34 84.32-9.88 13.06"/>
        <path d="m497.09 121.14-12.16 10.32"/>
        <path d="m515.71 162.1-13.88 7.02"/>
        <path d="m528.55 206.94-15.14 3.3"/>
        <path d="m534.86 251.14-8.52 20.38"/>
        <path d="m519.02 250.79 15.84.35"/>
        <path d="m414.19 36.36-4.89 15.94"/>
        <path d="m444.56 56.2-7.41 14.86"/>
        <path d="m380.79 25.07-2.29 16.35"/>
        <path d="m397.56 29.45-3.58 16.24"/>
        <path d="m378.5 41.42 19.06-11.97"/>
        <path d="m363.8 23.21 14.7 18.21"/>
        <path d="m429.26 44.97-6.12 15.49"/>
        <path d="m409.3 52.3 19.96-7.33"/>
        <path d="m397.56 29.45 11.74 22.85"/>
        <path d="m458.66 69.08-8.64 14.07"/>
        <path d="m437.15 71.06 21.51-1.98"/>
        <path d="m429.26 44.97 7.89 26.09"/>
        <path d="m484.9 101.23-11.04 11.84"/>
        <path d="m462.46 97.38 22.44 3.85"/>
        <path d="m458.66 69.08 3.8 28.3"/>
        <path d="m507.07 141.02-13.07 8.74"/>
        <path d="m484.93 131.46 22.14 9.56"/>
        <path d="m484.9 101.23.03 30.23"/>
        <path d="m522.73 183.59-14.55 5.25"/>
        <path d="m501.83 169.12 20.9 14.47"/>
        <path d="m507.07 141.02-5.24 28.1"/>
        <path d="m532.49 229.34-15.56 1.4"/>
        <path d="m513.41 210.24 19.08 19.1"/>
        <path d="m522.73 183.59-9.32 26.65"/>
        <path d="m532.49 229.34-13.47 21.45"/>
        <path d="m146.47 224.4c6.9-110 69.15-197.7 151-195.58 99.35 2.45 189.12 132.18 179.27 289.3l-17.1-48.88c-3.85-54.15-20.64-105.37-47.54-146.24-32.1-48.77-73.66-75.29-115.65-77.12-38.53-1.7-73.29 17.63-99.13 52.76-19.41 26.38-32.6 60-38.79 97.39z"/>
        <path d="m297.51 28.82c99.31 2.45 189.08 132.18 179.23 289.3"/>
        <path d="m201.03 74.93 5.41 12.39"/>
        <path d="m182.02 101.28 6.54 10.45"/>
        <path d="m167.69 129.75 7.33 8.45"/>
        <path d="m157.01 160.63 7.93 6.42"/>
        <path d="m150.21 191.48 2.77 17.61"/>
        <path d="m158.53 196.03-8.32-4.55"/>
        <path d="m249.24 38.43 2.32 15.48"/>
        <path d="m223.26 53.91 4.01 14.04"/>
        <path d="m280.42 29.69.17 16.68"/>
        <path d="m297.1 29.05-1.07 16.96"/>
        <path d="m264.39 32.98 1.3 16.13"/>
        <path d="m280.59 46.37-16.2-13.39"/>
        <path d="m297.51 28.82-16.92 17.55"/>
        <path d="m236.1 45.21 3.18 14.8"/>
        <path d="m251.56 53.91-15.46-8.7"/>
        <path d="m264.39 32.98-12.83 20.93"/>
        <path d="m211.82 63.66 4.74 13.25"/>
        <path d="m227.27 67.95-15.45-4.29"/>
        <path d="m236.1 45.21-8.83 22.74"/>
        <path d="m191.33 87.15 5.99 11.49"/>
        <path d="m206.44 87.32-15.11-.17"/>
        <path d="m211.82 63.66-5.38 23.66"/>
        <path d="m174.39 115.17 6.96 9.46"/>
        <path d="m188.56 111.73-14.17 3.44"/>
        <path d="m191.33 87.15-2.77 24.58"/>
        <path d="m162.03 144.54 7.64 7.46"/>
        <path d="m175.02 138.2-12.99 6.34"/>
        <path d="m174.39 115.17.63 23.03"/>
        <path d="m153.15 176.17 8.15 5.43"/>
        <path d="m164.94 167.05-11.79 9.12"/>
        <path d="m162.03 144.54 2.91 22.51"/>
        <path d="m153.15 176.17 5.38 19.86"/>
        <path d="m410.52 92.52-10.38 13.86"/>
        <path d="m436.53 131.46-12.81 10.96"/>
        <path d="m456.17 174.95-14.66 7.43"/>
        <path d="m469.74 222.66-16.02 3.43"/>
        <path d="m476.41 269.73-9.03 21.63"/>
        <path d="m459.64 269.24 16.77.49"/>
        <path d="m349.75 42.22-5.1 16.83"/>
        <path d="m381.42 62.93-7.75 15.74"/>
        <path d="m315.08 30.62-2.38 17.2"/>
        <path d="m332.47 35.08-3.73 17.12"/>
        <path d="m312.7 47.82 19.77-12.74"/>
        <path d="m297.51 28.82 15.19 19"/>
        <path d="m365.45 51.18-6.4 16.39"/>
        <path d="m344.65 59.05 20.8-7.87"/>
        <path d="m332.47 35.08 12.18 23.97"/>
        <path d="m396.18 76.46-9.07 14.92"/>
        <path d="m373.67 78.67 22.51-2.21"/>
        <path d="m365.45 51.18 8.22 27.49"/>
        <path d="m423.71 110.38-11.61 12.57"/>
        <path d="m400.14 106.38 23.57 4"/>
        <path d="m396.18 76.46 3.96 29.92"/>
        <path d="m447.05 152.56-13.79 9.26"/>
        <path d="m423.72 142.42 23.33 10.14"/>
        <path d="m423.71 110.38.01 32.04"/>
        <path d="m463.58 197.8-15.38 5.53"/>
        <path d="m441.51 182.38 22.07 15.42"/>
        <path d="m447.05 152.56-5.54 29.82"/>
        <path d="m473.91 246.51-16.48 1.4"/>
        <path d="m453.72 226.09 20.19 20.42"/>
        <path d="m463.58 197.8-9.86 28.29"/>
        <path d="m473.91 246.51-14.27 22.73"/>
        <path d="m76.71 238.76c7.16-114.26 70.5-205.83 154.51-204.34 103.17 1.77 197.52 138.58 187.08 305.25l-18.05-52c-4-57.38-21.65-111.63-49.92-154.85-33.53-51.25-76.77-78.9-120.23-80.52-39.64-1.48-75.25 18.94-101.63 55.7-19.77 27.49-33.19 62.49-39.47 101.32z"/>
        <path d="m132.27 83.27 5.49 12.88"/>
        <path d="m112.91 110.79 6.62 10.85"/>
        <path d="m98.33 140.43 7.41 8.78"/>
        <path d="m87.48 172.54 8 6.67"/>
        <path d="m80.54 204.57 2.77 18.31"/>
        <path d="m88.95 209.32-8.41-4.75"/>
        <path d="m181.57 44.88 2.36 16.15"/>
        <path d="m154.96 61.23 4.08 14.61"/>
        <path d="m213.6 35.49.17 17.45"/>
        <path d="m231.66 33.96-1.13 17.97"/>
        <path d="m197.11 39.06 1.32 16.86"/>
        <path d="m213.77 52.94-16.66-13.88"/>
        <path d="m231.22 34.42-17.45 18.52"/>
        <path d="m168.1 52.06 3.24 15.43"/>
        <path d="m183.93 61.03-15.83-8.97"/>
        <path d="m197.11 39.06-13.18 21.97"/>
        <path d="m143.28 71.47 4.81 13.78"/>
        <path d="m159.04 75.84-15.76-4.37"/>
        <path d="m168.1 52.06-9.06 23.78"/>
        <path d="m122.39 96.05 6.08 11.93"/>
        <path d="m137.76 96.15-15.37-.1"/>
        <path d="m143.28 71.47-5.52 24.68"/>
        <path d="m105.15 125.26 7.04 9.82"/>
        <path d="m119.53 121.64-14.38 3.62"/>
        <path d="m122.39 96.05-2.86 25.59"/>
        <path d="m92.58 155.82 7.73 7.75"/>
        <path d="m105.74 149.21-13.16 6.61"/>
        <path d="m105.15 125.26.59 23.95"/>
        <path d="m83.55 188.68 8.23 5.65"/>
        <path d="m95.48 179.21-11.93 9.47"/>
        <path d="m92.58 155.82 2.9 23.39"/>
        <path d="m83.55 188.68 5.4 20.64"/>
        <path d="m348.7 100.72-10.88 14.65"/>
        <path d="m375.97 141.79-13.45 11.59"/>
        <path d="m396.62 187.79-15.43 7.85"/>
        <path d="m410.92 238.37-16.89 3.58"/>
        <path d="m417.96 288.33-9.55 22.86"/>
        <path d="m400.25 287.69 17.71.64"/>
        <path d="m285.31 48.08-5.31 17.72"/>
        <path d="m318.29 69.66-8.1 16.62"/>
        <path d="m249.38 36.17-2.49 18.06"/>
        <path d="m267.38 40.71-3.88 18"/>
        <path d="m246.89 54.23 20.49-13.52"/>
        <path d="m231.22 34.42 15.67 19.81"/>
        <path d="m301.64 57.39-6.67 17.28"/>
        <path d="m280 65.8 21.64-8.41"/>
        <path d="m267.38 40.71 12.62 25.09"/>
        <path d="m333.69 83.84-9.48 15.77"/>
        <path d="m310.19 86.28 23.5-2.44"/>
        <path d="m301.64 57.39 8.55 28.89"/>
        <path d="m362.51 119.53-12.18 13.31"/>
        <path d="m337.82 115.37 24.69 4.16"/>
        <path d="m333.69 83.84 4.13 31.53"/>
        <path d="m387.04 164.09-14.51 9.8"/>
        <path d="m362.52 153.38 24.52 10.71"/>
        <path d="m362.51 119.53.01 33.85"/>
        <path d="m404.44 212.01-16.22 5.82"/>
        <path d="m381.19 195.64 23.25 16.37"/>
        <path d="m387.04 164.09-5.85 31.55"/>
        <path d="m415.32 263.69-17.39 1.39"/>
        <path d="m394.03 241.95 21.29 21.74"/>
        <path d="m404.44 212.01-10.41 29.94"/>
        <path d="m415.32 263.69-15.07 24"/>
        <path d="m7 253.11c7.37-118.49 71.79-213.95 157.93-213.11 107 1.09 206 145 194.92 321.18l-19-55.07c-4.23-60.62-22.71-117.9-52.3-163.41-35-53.82-79.88-82.59-124.81-84-40.74-1.25-77.2 20.3-104.13 58.63-20.12 28.64-33.78 65-40.24 105.28z"/>
        <path d="m63.51 91.61 5.57 13.38"/>
        <path d="m43.8 120.3 6.7 11.25"/>
        <path d="m28.97 151.12 7.5 9.1"/>
        <path d="m17.94 184.44 8.09 6.93"/>
        <path d="m10.87 217.67 2.78 18.99"/>
        <path d="m19.37 222.61-8.5-4.94"/>
        <path d="m113.89 51.33 2.4 16.82"/>
        <path d="m86.67 68.55 4.14 15.19"/>
        <path d="m146.79 41.28.15 18.23"/>
        <path d="m165.16 39.81-1.19 18.97"/>
        <path d="m129.84 45.14 1.33 17.58"/>
        <path d="m146.94 59.51-17.1-14.37"/>
        <path d="m164.93 40.03-17.99 19.48"/>
        <path d="m100.1 58.91 3.29 16.05"/>
        <path d="m116.29 68.15-16.19-9.24"/>
        <path d="m129.84 45.14-13.55 23.01"/>
        <path d="m74.74 79.28 4.88 14.31"/>
        <path d="m90.81 83.74-16.07-4.46"/>
        <path d="m100.1 58.91-9.29 24.83"/>
        <path d="m53.44 104.95 6.17 12.38"/>
        <path d="m69.08 104.99-15.64-.04"/>
        <path d="m74.74 79.28-5.66 25.71"/>
        <path d="m35.9 135.35 7.14 10.18"/>
        <path d="m50.5 131.55-14.6 3.8"/>
        <path d="m53.44 104.95-2.94 26.6"/>
        <path d="m23.13 167.09 7.81 8.04"/>
        <path d="m36.47 160.22-13.34 6.87"/>
        <path d="m35.9 135.35.57 24.87"/>
        <path d="m13.94 201.18 8.32 5.88"/>
        <path d="m26.03 191.37-12.09 9.81"/>
        <path d="m23.13 167.09 2.9 24.28"/>
        <path d="m13.94 201.18 5.43 21.43"/>
        <path d="m286.87 108.92-11.36 15.45"/>
        <path d="m315.42 152.11-14.11 12.24"/>
        <path d="m337.08 200.64-16.21 8.26"/>
        <path d="m352.11 254.09-17.77 3.71"/>
        <path d="m359.5 306.92-10.05 24.11"/>
        <path d="m340.87 306.14 18.63.78"/>
        <path d="m220.87 53.94-5.52 18.61"/>
        <path d="m255.15 76.39-8.45 17.5"/>
        <path d="m183.67 41.72-2.59 18.91"/>
        <path d="m202.29 46.34-4.04 18.88"/>
        <path d="m181.08 60.63 21.21-14.29"/>
        <path d="m164.93 40.03 16.15 20.6"/>
        <path d="m237.83 63.6-6.94 18.17"/>
        <path d="m215.35 72.55 22.48-8.95"/>
        <path d="m202.29 46.34 13.06 26.21"/>
        <path d="m271.21 91.22-9.9 16.62"/>
        <path d="m246.7 93.89 24.51-2.67"/>
        <path d="m237.83 63.6 8.87 30.29"/>
        <path d="m301.32 128.68-12.75 14.05"/>
        <path d="m275.51 124.37 25.81 4.31"/>
        <path d="m271.21 91.22 4.3 33.15"/>
        <path d="m327.02 175.62-15.23 10.34"/>
        <path d="m301.31 164.35 25.71 11.27"/>
        <path d="m301.32 128.68-.01 35.67"/>
        <path d="m345.29 226.22-17.04 6.1"/>
        <path d="m320.87 208.9 24.42 17.32"/>
        <path d="m327.02 175.62-6.15 33.28"/>
        <path d="m356.73 280.86-18.29 1.38"/>
        <path d="m334.34 257.8 22.39 23.06"/>
        <path d="m345.29 226.22-10.95 31.58"/>
        <path d="m356.73 280.86-15.86 25.28"/>
        <path d="m30.14 259.8 6.24-99.62 284.51 48.7-8.63 137.74"/>
        <path d="m359.85 361.21-352.9-108.1"/>
        <path d="m50.79 266.1 9.31-148.7 228.86 25.39-12.07 192.59"/>
        <path d="m340.87 306.14-105.53-27.41"/>
        <path d="m81.73 238.82-62.28-16.18"/>
        <path d="m96.96 168.8 5.91-94.31 127.82 6.83-6.79 108.46"/>
        <path d="m163.97 58.78-7.63 121.76"/>
        <path d="m768.78 176.81-409.28 130.11"/>
        <path d="m767.06 160.75-410.33 120.11"/>
        <path d="m763.81 144.08-410.94 109.75"/>
        <path d="m759.67 126.71-414.38 99.51"/>
        <path d="m753.88 110.72-416.8 89.92"/>
        <path d="m747.15 94.89-420.13 80.73"/>
        <path d="m739.6 79.57-424.18 72.54"/>
        <path d="m729.67 64.62-428.35 64.06"/>
        <path d="m719.78 51.2-432.91 57.72"/>
        <path d="m708.6 39.56-436.69 51.87"/>
        <path d="m697.1 29.28-441.95 47.11"/>
        <path d="m684.7 20.04-446.87 43.56"/>
        <path d="m671.93 12.93-451.06 41.01"/>
        <path d="m657.92 6.94-455.63 39.4"/>
        <path d="m10.87 217.67 487.67-91.65"/>
        <path d="m501.19 113.65-487.25 87.53"/>
        <path d="m17.94 184.44 486.76-83.32"/>
        <path d="m509.29 88.17-486.16 78.92"/>
        <path d="m28.97 151.12 485.5-74.79"/>
        <path d="m520.6 64.72-484.7 70.63"/>
        <path d="m43.8 120.3 483.77-66.57"/>
        <path d="m536.04 42.67-482.6 62.28"/>
        <path d="m63.51 91.61 481.31-58.4"/>
        <path d="m554.52 24.62-479.78 54.66"/>
        <path d="m86.67 68.55 478.06-51.23"/>
        <path d="m576.1 10.97-476 47.94"/>
        <path d="m113.89 51.33 473.73-45.13"/>
        <path d="m129.84 45.14 470.92-42.55"/>
        <path d="m614.5.73-467.71 40.55"/>
        <path d="m183.67 41.72 459.95-38.84"/>
        <path d="m239.62 194.78-8.01 127.74"/>
        <path d="m6.95 253.11 488.33-100.48"/>
        <path d="m768.96 210.4-409.11 150.81"/>
        <path d="m85.98 168.11-6.69 106.79"/>
    </g>
</svg>
